<svg xmlns="http://www.w3.org/2000/svg" xmlns:xlink="http://www.w3.org/1999/xlink" width="500" zoomAndPan="magnify" viewBox="0 0 375 374.999991" height="500" preserveAspectRatio="xMidYMid meet" version="1.0"><defs><g/><clipPath id="aff2313328"><path d="M 37 48 L 317.839844 48 L 317.839844 140.800781 L 37 140.800781 Z M 37 48 " clip-rule="nonzero"/></clipPath><clipPath id="71e2705b26"><rect x="0" width="281" y="0" height="93"/></clipPath><clipPath id="9cf1858023"><path d="M 0.273438 29 L 16 29 L 16 48 L 0.273438 48 Z M 0.273438 29 " clip-rule="nonzero"/></clipPath><clipPath id="7ca4a83fad"><path d="M 19 0.878906 L 32 0.878906 L 32 15 L 19 15 Z M 19 0.878906 " clip-rule="nonzero"/></clipPath><clipPath id="8757fc3a23"><path d="M 30 30 L 60 30 L 60 73.882812 L 30 73.882812 Z M 30 30 " clip-rule="nonzero"/></clipPath><clipPath id="1df570c5d0"><rect x="0" width="318" y="0" height="141"/></clipPath></defs><g transform="matrix(1, 0, 0, 1, 10, 74)"><g clip-path="url(#1df570c5d0)"><g clip-path="url(#aff2313328)"><g transform="matrix(1, 0, 0, 1, 37, 48)"><g clip-path="url(#71e2705b26)"><g fill="#0071a8" fill-opacity="1"><g transform="translate(0.413868, 66.906575)"><g><path d="M 5.59375 -58.078125 C 7.09375 -59.578125 8.882812 -60.328125 10.96875 -60.328125 C 13.050781 -60.328125 14.84375 -59.578125 16.34375 -58.078125 C 17.851562 -56.578125 18.609375 -54.785156 18.609375 -52.703125 C 18.609375 -50.617188 17.851562 -48.820312 16.34375 -47.3125 C 14.84375 -45.8125 13.050781 -45.0625 10.96875 -45.0625 C 8.882812 -45.0625 7.09375 -45.8125 5.59375 -47.3125 C 4.09375 -48.820312 3.34375 -50.617188 3.34375 -52.703125 C 3.34375 -54.785156 4.09375 -56.578125 5.59375 -58.078125 Z M 4.359375 -37.28125 L 4.359375 0 L 17.234375 0 L 17.234375 -37.28125 Z M 4.359375 -37.28125 "/></g></g></g><g fill="#0071a8" fill-opacity="1"><g transform="translate(22.360941, 66.906575)"><g><path d="M 4.359375 0 L 4.359375 -37.28125 L 17.234375 -37.28125 L 17.234375 -33.359375 L 17.375 -33.359375 C 20.71875 -36.703125 24.28125 -38.375 28.0625 -38.375 C 29.894531 -38.375 31.71875 -38.128906 33.53125 -37.640625 C 35.351562 -37.160156 37.097656 -36.410156 38.765625 -35.390625 C 40.441406 -34.378906 41.800781 -32.941406 42.84375 -31.078125 C 43.882812 -29.210938 44.40625 -27.039062 44.40625 -24.5625 L 44.40625 0 L 31.546875 0 L 31.546875 -21.078125 C 31.546875 -23.015625 30.925781 -24.707031 29.6875 -26.15625 C 28.457031 -27.613281 26.847656 -28.34375 24.859375 -28.34375 C 22.921875 -28.34375 21.164062 -27.59375 19.59375 -26.09375 C 18.019531 -24.59375 17.234375 -22.921875 17.234375 -21.078125 L 17.234375 0 Z M 4.359375 0 "/></g></g></g><g fill="#0071a8" fill-opacity="1"><g transform="translate(70.397406, 66.906575)"><g><path d="M 24.203125 -27.84375 C 21.785156 -27.84375 19.703125 -26.941406 17.953125 -25.140625 C 16.210938 -23.347656 15.34375 -21.195312 15.34375 -18.6875 C 15.34375 -16.113281 16.210938 -13.929688 17.953125 -12.140625 C 19.703125 -10.347656 21.785156 -9.453125 24.203125 -9.453125 C 25.367188 -9.453125 26.472656 -9.597656 27.515625 -9.890625 C 28.554688 -10.179688 29.316406 -10.46875 29.796875 -10.75 L 30.453125 -11.1875 L 34.8125 -2.25 C 34.476562 -2.007812 34.003906 -1.707031 33.390625 -1.34375 C 32.785156 -0.976562 31.40625 -0.484375 29.25 0.140625 C 27.09375 0.773438 24.78125 1.09375 22.3125 1.09375 C 16.832031 1.09375 12.019531 -0.832031 7.875 -4.6875 C 3.738281 -8.539062 1.671875 -13.15625 1.671875 -18.53125 C 1.671875 -23.957031 3.738281 -28.617188 7.875 -32.515625 C 12.019531 -36.421875 16.832031 -38.375 22.3125 -38.375 C 24.78125 -38.375 27.054688 -38.082031 29.140625 -37.5 C 31.222656 -36.925781 32.703125 -36.347656 33.578125 -35.765625 L 34.8125 -34.890625 L 30.453125 -26.09375 C 28.859375 -27.257812 26.773438 -27.84375 24.203125 -27.84375 Z M 24.203125 -27.84375 "/></g></g></g><g fill="#0071a8" fill-opacity="1"><g transform="translate(106.079578, 66.906575)"><g><path d="M 6.90625 -4.609375 C 3.414062 -8.421875 1.671875 -13.085938 1.671875 -18.609375 C 1.671875 -24.128906 3.414062 -28.800781 6.90625 -32.625 C 10.394531 -36.457031 14.828125 -38.375 20.203125 -38.375 C 25.148438 -38.375 29.222656 -36.828125 32.421875 -33.734375 L 32.421875 -37.28125 L 45.28125 -37.28125 L 45.28125 0 L 32.5625 0 L 32.5625 -4.21875 L 32.421875 -4.21875 C 29.222656 -0.675781 25.148438 1.09375 20.203125 1.09375 C 14.828125 1.09375 10.394531 -0.804688 6.90625 -4.609375 Z M 17.84375 -24.921875 C 16.175781 -23.273438 15.34375 -21.164062 15.34375 -18.59375 C 15.34375 -16.03125 16.140625 -13.9375 17.734375 -12.3125 C 19.335938 -10.695312 21.445312 -9.890625 24.0625 -9.890625 C 26.582031 -9.890625 28.648438 -10.710938 30.265625 -12.359375 C 31.890625 -14.003906 32.703125 -16.085938 32.703125 -18.609375 C 32.703125 -21.171875 31.863281 -23.273438 30.1875 -24.921875 C 28.519531 -26.578125 26.476562 -27.40625 24.0625 -27.40625 C 21.59375 -27.40625 19.519531 -26.578125 17.84375 -24.921875 Z M 17.84375 -24.921875 "/></g></g></g><g fill="#0071a8" fill-opacity="1"><g transform="translate(155.714856, 66.906575)"><g><path d="M 4.359375 0 L 4.359375 -37.28125 L 17.234375 -37.28125 L 17.234375 -33.359375 L 17.375 -33.359375 C 20.71875 -36.703125 24.28125 -38.375 28.0625 -38.375 C 29.894531 -38.375 31.71875 -38.128906 33.53125 -37.640625 C 35.351562 -37.160156 37.097656 -36.410156 38.765625 -35.390625 C 40.441406 -34.378906 41.800781 -32.941406 42.84375 -31.078125 C 43.882812 -29.210938 44.40625 -27.039062 44.40625 -24.5625 L 44.40625 0 L 31.546875 0 L 31.546875 -21.078125 C 31.546875 -23.015625 30.925781 -24.707031 29.6875 -26.15625 C 28.457031 -27.613281 26.847656 -28.34375 24.859375 -28.34375 C 22.921875 -28.34375 21.164062 -27.59375 19.59375 -26.09375 C 18.019531 -24.59375 17.234375 -22.921875 17.234375 -21.078125 L 17.234375 0 Z M 4.359375 0 "/></g></g></g><g fill="#0071a8" fill-opacity="1"><g transform="translate(203.751321, 66.906575)"><g><path d="M 6.546875 -37.28125 L 6.546875 -51.171875 L 19.40625 -51.171875 L 19.40625 -37.28125 L 27.25 -37.28125 L 27.25 -27.46875 L 19.40625 -27.46875 L 19.40625 -15.625 C 19.40625 -12.1875 20.375 -10.46875 22.3125 -10.46875 C 22.800781 -10.46875 23.3125 -10.5625 23.84375 -10.75 C 24.375 -10.945312 24.785156 -11.144531 25.078125 -11.34375 L 25.515625 -11.625 L 28.71875 -1.234375 C 25.945312 0.316406 22.796875 1.09375 19.265625 1.09375 C 16.835938 1.09375 14.75 0.671875 13 -0.171875 C 11.257812 -1.023438 9.941406 -2.164062 9.046875 -3.59375 C 8.148438 -5.03125 7.507812 -6.535156 7.125 -8.109375 C 6.738281 -9.679688 6.546875 -11.363281 6.546875 -13.15625 L 6.546875 -27.46875 L 1.15625 -27.46875 L 1.15625 -37.28125 Z M 6.546875 -37.28125 "/></g></g></g><g fill="#0071a8" fill-opacity="1"><g transform="translate(232.456924, 66.906575)"><g><path d="M 7.875 -4.421875 C 3.738281 -8.109375 1.671875 -12.832031 1.671875 -18.59375 C 1.671875 -24.363281 3.828125 -29.101562 8.140625 -32.8125 C 12.453125 -36.519531 17.78125 -38.375 24.125 -38.375 C 30.382812 -38.375 35.65625 -36.507812 39.9375 -32.78125 C 44.226562 -29.050781 46.375 -24.328125 46.375 -18.609375 C 46.375 -12.890625 44.273438 -8.175781 40.078125 -4.46875 C 35.890625 -0.757812 30.570312 1.09375 24.125 1.09375 C 17.4375 1.09375 12.019531 -0.742188 7.875 -4.421875 Z M 17.84375 -24.921875 C 16.175781 -23.273438 15.34375 -21.164062 15.34375 -18.59375 C 15.34375 -16.03125 16.140625 -13.9375 17.734375 -12.3125 C 19.335938 -10.695312 21.445312 -9.890625 24.0625 -9.890625 C 26.582031 -9.890625 28.648438 -10.710938 30.265625 -12.359375 C 31.890625 -14.003906 32.703125 -16.085938 32.703125 -18.609375 C 32.703125 -21.171875 31.863281 -23.273438 30.1875 -24.921875 C 28.519531 -26.578125 26.476562 -27.40625 24.0625 -27.40625 C 21.59375 -27.40625 19.519531 -26.578125 17.84375 -24.921875 Z M 17.84375 -24.921875 "/></g></g></g></g></g></g><g clip-path="url(#9cf1858023)"><path fill="#51adcf" d="M 10.792969 35.917969 C 8.367188 33.5 8.519531 29.898438 8.089844 29.898438 C 7.65625 29.898438 7.8125 33.5 5.390625 35.917969 C 2.972656 38.339844 0.273438 38.09375 0.273438 38.617188 C 0.273438 39.144531 2.972656 38.894531 5.390625 41.320312 C 7.8125 43.738281 7.660156 47.34375 8.09375 47.34375 C 8.519531 47.34375 8.367188 43.738281 10.792969 41.320312 C 13.210938 38.898438 15.914062 39.144531 15.914062 38.617188 C 15.910156 38.09375 13.207031 38.339844 10.792969 35.917969 Z M 10.792969 35.917969 " fill-opacity="1" fill-rule="nonzero"/></g><g clip-path="url(#7ca4a83fad)"><path fill="#51adcf" d="M 27.574219 5.761719 C 25.652344 3.835938 25.773438 0.976562 25.433594 0.976562 C 25.085938 0.976562 25.210938 3.835938 23.289062 5.761719 C 21.367188 7.679688 19.222656 7.484375 19.222656 7.902344 C 19.222656 8.320312 21.367188 8.125 23.289062 10.042969 C 25.210938 11.964844 25.085938 14.828125 25.433594 14.828125 C 25.773438 14.828125 25.652344 11.964844 27.574219 10.042969 C 29.496094 8.125 31.636719 8.320312 31.636719 7.902344 C 31.636719 7.484375 29.496094 7.679688 27.574219 5.761719 Z M 27.574219 5.761719 " fill-opacity="1" fill-rule="nonzero"/></g><path fill="#0071a8" d="M 70.582031 25.648438 C 64.941406 24.765625 62.609375 21.644531 60.6875 18.753906 C 57.621094 14.140625 49.011719 14.691406 45.851562 16.285156 C 42.683594 17.878906 39.46875 20.050781 34.578125 19.296875 C 13.589844 16.082031 19.566406 32.320312 21.335938 37.527344 C 23.679688 44.421875 21.5 46.324219 19.890625 52.542969 C 16.578125 65.332031 28.769531 65.828125 32.824219 65.824219 C 33.457031 65.828125 35.460938 65.824219 36.183594 65.824219 C 33.332031 61.34375 30.285156 60.183594 30.328125 56.699219 C 30.351562 54.90625 30.332031 52.601562 29.199219 50.871094 C 26.128906 46.140625 29.503906 44.160156 29.503906 44.160156 C 32.980469 41.902344 36.078125 45 36.078125 45 C 33.359375 32.25 37.246094 29.871094 39.5625 29.886719 C 40.621094 29.894531 41.03125 30.316406 41.03125 30.316406 C 41.03125 30.316406 41.640625 27.5625 44.058594 27.457031 C 46.777344 27.332031 47.4375 29.914062 47.4375 29.914062 C 47.4375 29.914062 48.007812 28.804688 49.898438 28.902344 C 52.375 29.03125 53.546875 32.9375 53.546875 32.9375 C 53.546875 32.9375 54.28125 32.472656 55.875 32.917969 C 57.890625 33.480469 59.019531 35.734375 59.351562 36.445312 C 61.175781 40.347656 62.03125 47.613281 62.03125 47.613281 C 62.050781 50.761719 62.714844 54.523438 58.976562 63.261719 C 58.597656 64.128906 58.328125 64.972656 58.105469 65.824219 C 58.105469 65.824219 61.613281 65.824219 62.296875 65.824219 C 73.886719 65.816406 66.710938 55.574219 75.433594 46.167969 C 81.832031 39.265625 77.859375 26.785156 70.582031 25.648438 Z M 70.582031 25.648438 " fill-opacity="1" fill-rule="nonzero"/><g clip-path="url(#8757fc3a23)"><path fill="#51adcf" d="M 59.03125 48.761719 C 59.027344 46.222656 57.660156 36.15625 54.148438 35.910156 C 52.734375 35.8125 52.546875 37.285156 52.539062 38.074219 C 52.457031 36.613281 51.984375 32.335938 49.359375 32.300781 C 47.25 32.269531 47.5 34.929688 47.5 34.929688 C 47.5 34.929688 46.9375 30.445312 44.101562 30.941406 C 41.949219 31.3125 42.574219 35.890625 42.574219 35.890625 C 42.574219 35.890625 41.8125 32.839844 39.757812 33.082031 C 37.082031 33.40625 38.03125 39.308594 38.785156 43.550781 C 39.8125 49.359375 39.5 53.375 36.777344 48.921875 C 34.085938 44.523438 29.785156 46.535156 30.894531 48.042969 C 32.394531 50.085938 33.558594 53.46875 33.523438 56.066406 C 33.488281 58.898438 35.996094 59.816406 38.304688 63.519531 C 40.617188 67.21875 40.089844 71.179688 40.089844 71.179688 C 40.089844 71.179688 43.117188 73.125 47.648438 73.125 C 52.175781 73.125 55.238281 71.179688 55.238281 71.179688 C 55.214844 68.34375 55.046875 64.921875 56.574219 61.351562 C 59.585938 54.320312 59.042969 51.292969 59.03125 48.761719 Z M 59.03125 48.761719 " fill-opacity="1" fill-rule="nonzero"/></g><g fill="#5b5b5b" fill-opacity="1"><g transform="translate(63.741169, 130.891127)"><g><path d="M 10.15625 -1.71875 L 9.859375 -1.34375 C 8.984375 -0.320312 7.703125 0.1875 6.015625 0.1875 C 4.515625 0.1875 3.335938 -0.304688 2.484375 -1.296875 C 1.628906 -2.285156 1.195312 -3.691406 1.1875 -5.515625 L 1.1875 -8.234375 C 1.1875 -10.171875 1.570312 -11.625 2.34375 -12.59375 C 3.125 -13.5625 4.285156 -14.046875 5.828125 -14.046875 C 7.148438 -14.046875 8.179688 -13.675781 8.921875 -12.9375 C 9.671875 -12.195312 10.082031 -11.148438 10.15625 -9.796875 L 8.421875 -9.796875 C 8.347656 -10.648438 8.109375 -11.320312 7.703125 -11.8125 C 7.296875 -12.300781 6.675781 -12.546875 5.84375 -12.546875 C 4.84375 -12.546875 4.109375 -12.21875 3.640625 -11.5625 C 3.179688 -10.914062 2.945312 -9.878906 2.9375 -8.453125 L 2.9375 -5.625 C 2.9375 -4.226562 3.203125 -3.15625 3.734375 -2.40625 C 4.265625 -1.664062 5.023438 -1.296875 6.015625 -1.296875 C 6.960938 -1.296875 7.675781 -1.523438 8.15625 -1.984375 L 8.421875 -2.21875 L 8.421875 -5.40625 L 5.890625 -5.40625 L 5.890625 -6.890625 L 10.15625 -6.890625 Z M 10.15625 -1.71875 "/></g></g></g><g fill="#5b5b5b" fill-opacity="1"><g transform="translate(79.575643, 130.891127)"><g><path d="M 8.140625 -6.40625 L 3.234375 -6.40625 L 3.234375 -1.5 L 8.9375 -1.5 L 8.9375 0 L 1.5 0 L 1.5 -13.859375 L 8.84375 -13.859375 L 8.84375 -12.34375 L 3.234375 -12.34375 L 3.234375 -7.890625 L 8.140625 -7.890625 Z M 8.140625 -6.40625 "/></g></g></g><g fill="#5b5b5b" fill-opacity="1"><g transform="translate(93.574587, 130.891127)"><g><path d="M 1.5 0 L 1.5 -13.859375 L 5.4375 -13.859375 C 6.695312 -13.859375 7.644531 -13.546875 8.28125 -12.921875 C 8.925781 -12.304688 9.25 -11.382812 9.25 -10.15625 C 9.25 -9.507812 9.085938 -8.9375 8.765625 -8.4375 C 8.441406 -7.945312 8.003906 -7.566406 7.453125 -7.296875 C 8.085938 -7.109375 8.585938 -6.71875 8.953125 -6.125 C 9.328125 -5.53125 9.515625 -4.820312 9.515625 -4 C 9.515625 -2.75 9.171875 -1.769531 8.484375 -1.0625 C 7.804688 -0.351562 6.835938 0 5.578125 0 Z M 3.234375 -6.484375 L 3.234375 -1.5 L 5.609375 -1.5 C 6.273438 -1.5 6.800781 -1.710938 7.1875 -2.140625 C 7.570312 -2.578125 7.765625 -3.191406 7.765625 -3.984375 C 7.765625 -5.648438 7.0625 -6.484375 5.65625 -6.484375 Z M 3.234375 -7.9375 L 5.46875 -7.9375 C 6.070312 -7.9375 6.554688 -8.140625 6.921875 -8.546875 C 7.296875 -8.953125 7.484375 -9.492188 7.484375 -10.171875 C 7.484375 -10.929688 7.316406 -11.484375 6.984375 -11.828125 C 6.648438 -12.171875 6.132812 -12.34375 5.4375 -12.34375 L 3.234375 -12.34375 Z M 3.234375 -7.9375 "/></g></g></g><g fill="#5b5b5b" fill-opacity="1"><g transform="translate(108.524589, 130.891127)"><g><path d="M 7.953125 -3.609375 L 3.265625 -3.609375 L 2.203125 0 L 0.40625 0 L 4.875 -13.859375 L 6.359375 -13.859375 L 10.84375 0 L 9.046875 0 Z M 3.734375 -5.125 L 7.5 -5.125 L 5.609375 -11.421875 Z M 2.578125 -16 C 2.578125 -16.28125 2.664062 -16.515625 2.84375 -16.703125 C 3.019531 -16.898438 3.28125 -17 3.625 -17 C 3.96875 -17 4.226562 -16.898438 4.40625 -16.703125 C 4.582031 -16.515625 4.671875 -16.273438 4.671875 -15.984375 C 4.671875 -15.703125 4.582031 -15.46875 4.40625 -15.28125 C 4.226562 -15.09375 3.96875 -15 3.625 -15 C 3.28125 -15 3.019531 -15.09375 2.84375 -15.28125 C 2.664062 -15.46875 2.578125 -15.707031 2.578125 -16 Z M 6.671875 -15.984375 C 6.671875 -16.265625 6.757812 -16.503906 6.9375 -16.703125 C 7.113281 -16.898438 7.375 -17 7.71875 -17 C 8.0625 -17 8.320312 -16.898438 8.5 -16.703125 C 8.675781 -16.503906 8.765625 -16.257812 8.765625 -15.96875 C 8.765625 -15.6875 8.675781 -15.453125 8.5 -15.265625 C 8.320312 -15.078125 8.0625 -14.984375 7.71875 -14.984375 C 7.375 -14.984375 7.113281 -15.078125 6.9375 -15.265625 C 6.757812 -15.453125 6.671875 -15.691406 6.671875 -15.984375 Z M 6.671875 -15.984375 "/></g></g></g><g fill="#5b5b5b" fill-opacity="1"><g transform="translate(124.073745, 130.891127)"><g><path d="M 9.75 -13.859375 L 9.75 -4 C 9.738281 -2.6875 9.359375 -1.660156 8.609375 -0.921875 C 7.859375 -0.179688 6.816406 0.1875 5.484375 0.1875 C 4.109375 0.1875 3.054688 -0.171875 2.328125 -0.890625 C 1.609375 -1.617188 1.242188 -2.65625 1.234375 -4 L 1.234375 -13.859375 L 2.96875 -13.859375 L 2.96875 -4.078125 C 2.96875 -3.140625 3.164062 -2.441406 3.5625 -1.984375 C 3.957031 -1.523438 4.597656 -1.296875 5.484375 -1.296875 C 6.367188 -1.296875 7.007812 -1.523438 7.40625 -1.984375 C 7.800781 -2.441406 8 -3.140625 8 -4.078125 L 8 -13.859375 Z M 9.75 -13.859375 "/></g></g></g><g fill="#5b5b5b" fill-opacity="1"><g transform="translate(139.337585, 130.891127)"><g><path d="M 1.5 0 L 1.5 -13.859375 L 4.796875 -13.859375 C 6.410156 -13.859375 7.664062 -13.347656 8.5625 -12.328125 C 9.457031 -11.316406 9.90625 -9.894531 9.90625 -8.0625 L 9.90625 -5.75 C 9.90625 -3.914062 9.453125 -2.5 8.546875 -1.5 C 7.640625 -0.5 6.320312 0 4.59375 0 Z M 3.234375 -12.34375 L 3.234375 -1.5 L 4.640625 -1.5 C 5.859375 -1.5 6.75 -1.847656 7.3125 -2.546875 C 7.875 -3.242188 8.164062 -4.28125 8.1875 -5.65625 L 8.1875 -8.109375 C 8.1875 -9.566406 7.90625 -10.632812 7.34375 -11.3125 C 6.78125 -12 5.929688 -12.34375 4.796875 -12.34375 Z M 3.234375 -12.34375 "/></g></g></g><g fill="#5b5b5b" fill-opacity="1"><g transform="translate(154.782136, 130.891127)"><g><path d="M 8.140625 -6.40625 L 3.234375 -6.40625 L 3.234375 -1.5 L 8.9375 -1.5 L 8.9375 0 L 1.5 0 L 1.5 -13.859375 L 8.84375 -13.859375 L 8.84375 -12.34375 L 3.234375 -12.34375 L 3.234375 -7.890625 L 8.140625 -7.890625 Z M 8.140625 -6.40625 "/></g></g></g><g fill="#5b5b5b" fill-opacity="1"><g transform="translate(168.78108, 130.891127)"><g><path d="M 5.6875 -5.609375 L 3.25 -5.609375 L 3.25 0 L 1.5 0 L 1.5 -13.859375 L 5.375 -13.859375 C 6.726562 -13.859375 7.753906 -13.503906 8.453125 -12.796875 C 9.148438 -12.085938 9.5 -11.050781 9.5 -9.6875 C 9.5 -8.832031 9.3125 -8.082031 8.9375 -7.4375 C 8.5625 -6.800781 8.023438 -6.320312 7.328125 -6 L 10.015625 -0.109375 L 10.015625 0 L 8.140625 0 Z M 3.25 -7.09375 L 5.359375 -7.09375 C 6.085938 -7.09375 6.664062 -7.328125 7.09375 -7.796875 C 7.53125 -8.265625 7.75 -8.894531 7.75 -9.6875 C 7.75 -11.457031 6.945312 -12.34375 5.34375 -12.34375 L 3.25 -12.34375 Z M 3.25 -7.09375 "/></g></g></g><g fill="#5b5b5b" fill-opacity="1"><g transform="translate(183.445765, 130.891127)"><g><path d="M 8.140625 -6.40625 L 3.234375 -6.40625 L 3.234375 -1.5 L 8.9375 -1.5 L 8.9375 0 L 1.5 0 L 1.5 -13.859375 L 8.84375 -13.859375 L 8.84375 -12.34375 L 3.234375 -12.34375 L 3.234375 -7.890625 L 8.140625 -7.890625 Z M 8.140625 -6.40625 "/></g></g></g><g fill="#5b5b5b" fill-opacity="1"><g transform="translate(197.444709, 130.891127)"><g><path d="M 3.3125 0 L 1.5625 0 L 1.5625 -13.859375 L 3.3125 -13.859375 Z M 3.3125 0 "/></g></g></g><g fill="#5b5b5b" fill-opacity="1"><g transform="translate(206.640803, 130.891127)"><g><path d="M 10.546875 0 L 8.796875 0 L 3.25 -10.671875 L 3.25 0 L 1.5 0 L 1.5 -13.859375 L 3.25 -13.859375 L 8.8125 -3.125 L 8.8125 -13.859375 L 10.546875 -13.859375 Z M 10.546875 0 "/></g></g></g><g fill="#5b5b5b" fill-opacity="1"><g transform="translate(223.02689, 130.891127)"><g><path d="M 3.3125 0 L 1.5625 0 L 1.5625 -13.859375 L 3.3125 -13.859375 Z M 3.3125 0 "/></g></g></g><g fill="#5b5b5b" fill-opacity="1"><g transform="translate(232.222984, 130.891127)"><g><path d="M 10.15625 -1.71875 L 9.859375 -1.34375 C 8.984375 -0.320312 7.703125 0.1875 6.015625 0.1875 C 4.515625 0.1875 3.335938 -0.304688 2.484375 -1.296875 C 1.628906 -2.285156 1.195312 -3.691406 1.1875 -5.515625 L 1.1875 -8.234375 C 1.1875 -10.171875 1.570312 -11.625 2.34375 -12.59375 C 3.125 -13.5625 4.285156 -14.046875 5.828125 -14.046875 C 7.148438 -14.046875 8.179688 -13.675781 8.921875 -12.9375 C 9.671875 -12.195312 10.082031 -11.148438 10.15625 -9.796875 L 8.421875 -9.796875 C 8.347656 -10.648438 8.109375 -11.320312 7.703125 -11.8125 C 7.296875 -12.300781 6.675781 -12.546875 5.84375 -12.546875 C 4.84375 -12.546875 4.109375 -12.21875 3.640625 -11.5625 C 3.179688 -10.914062 2.945312 -9.878906 2.9375 -8.453125 L 2.9375 -5.625 C 2.9375 -4.226562 3.203125 -3.15625 3.734375 -2.40625 C 4.265625 -1.664062 5.023438 -1.296875 6.015625 -1.296875 C 6.960938 -1.296875 7.675781 -1.523438 8.15625 -1.984375 L 8.421875 -2.21875 L 8.421875 -5.40625 L 5.890625 -5.40625 L 5.890625 -6.890625 L 10.15625 -6.890625 Z M 10.15625 -1.71875 "/></g></g></g><g fill="#5b5b5b" fill-opacity="1"><g transform="translate(248.057458, 130.891127)"><g><path d="M 9.75 -13.859375 L 9.75 -4 C 9.738281 -2.6875 9.359375 -1.660156 8.609375 -0.921875 C 7.859375 -0.179688 6.816406 0.1875 5.484375 0.1875 C 4.109375 0.1875 3.054688 -0.171875 2.328125 -0.890625 C 1.609375 -1.617188 1.242188 -2.65625 1.234375 -4 L 1.234375 -13.859375 L 2.96875 -13.859375 L 2.96875 -4.078125 C 2.96875 -3.140625 3.164062 -2.441406 3.5625 -1.984375 C 3.957031 -1.523438 4.597656 -1.296875 5.484375 -1.296875 C 6.367188 -1.296875 7.007812 -1.523438 7.40625 -1.984375 C 7.800781 -2.441406 8 -3.140625 8 -4.078125 L 8 -13.859375 Z M 9.75 -13.859375 "/></g></g></g><g fill="#5b5b5b" fill-opacity="1"><g transform="translate(263.321297, 130.891127)"><g><path d="M 10.546875 0 L 8.796875 0 L 3.25 -10.671875 L 3.25 0 L 1.5 0 L 1.5 -13.859375 L 3.25 -13.859375 L 8.8125 -3.125 L 8.8125 -13.859375 L 10.546875 -13.859375 Z M 10.546875 0 "/></g></g></g><g fill="#5b5b5b" fill-opacity="1"><g transform="translate(279.707384, 130.891127)"><g><path d="M 10.15625 -1.71875 L 9.859375 -1.34375 C 8.984375 -0.320312 7.703125 0.1875 6.015625 0.1875 C 4.515625 0.1875 3.335938 -0.304688 2.484375 -1.296875 C 1.628906 -2.285156 1.195312 -3.691406 1.1875 -5.515625 L 1.1875 -8.234375 C 1.1875 -10.171875 1.570312 -11.625 2.34375 -12.59375 C 3.125 -13.5625 4.285156 -14.046875 5.828125 -14.046875 C 7.148438 -14.046875 8.179688 -13.675781 8.921875 -12.9375 C 9.671875 -12.195312 10.082031 -11.148438 10.15625 -9.796875 L 8.421875 -9.796875 C 8.347656 -10.648438 8.109375 -11.320312 7.703125 -11.8125 C 7.296875 -12.300781 6.675781 -12.546875 5.84375 -12.546875 C 4.84375 -12.546875 4.109375 -12.21875 3.640625 -11.5625 C 3.179688 -10.914062 2.945312 -9.878906 2.9375 -8.453125 L 2.9375 -5.625 C 2.9375 -4.226562 3.203125 -3.15625 3.734375 -2.40625 C 4.265625 -1.664062 5.023438 -1.296875 6.015625 -1.296875 C 6.960938 -1.296875 7.675781 -1.523438 8.15625 -1.984375 L 8.421875 -2.21875 L 8.421875 -5.40625 L 5.890625 -5.40625 L 5.890625 -6.890625 L 10.15625 -6.890625 Z M 10.15625 -1.71875 "/></g></g></g></g></g></svg>